<?xml version="1.0" encoding="UTF-8"?>
<svg id="Capa_1" xmlns="http://www.w3.org/2000/svg" version="1.1" xmlns:xlink="http://www.w3.org/1999/xlink" viewBox="0 0 1041.2 254.4">
  <!-- Generator: Adobe Illustrator 29.0.0, SVG Export Plug-In . SVG Version: 2.1.0 Build 186)  -->
  <defs>
    <style>
      .st0 {
        fill: #fff;
      }

      .st1 {
        display: none;
        opacity: .6;
      }

      .st2 {
        fill: #f54b20;
      }
    </style>
  </defs>
  <image class="st1" width="1024" height="1024" transform="translate(-278.2 -675.7) scale(1.6)" xlink:href="ChatGPT Image 11 abr 2025, 08_56_03 p.m..png"/>
  <g>
    <path class="st2" d="M264.6,10.6l-49.6,67.3c-.4.6-1.1.9-1.8.9l-48.9.6v89.6c0,.5-.2,1-.5,1.4l-63.8,76.3c-1.3,1.6-4,.7-4-1.4l-.2-164.1H13c-4.4,0-8-3.6-8-8V14.9c0-4.4,3.6-8,8-8h249.8c1.8.1,2.9,2.2,1.8,3.7Z"/>
    <g>
      <path class="st0" d="M295,44.3h123.9v24.7h-47.2v128.3h-29.5V69h-47.2v-24.7Z"/>
      <path class="st0" d="M418.9,88h25.3l2,14c3.1-3.8,6.5-6.9,10.4-9.3,3.9-2.4,8.1-4.1,12.8-5,4.7-.9,9.5-.8,14.6.3v26.2c-3.9-1.3-8-1.7-12.3-1.1-4.3.6-8.3,2.1-12,4.6-3.7,2.5-6.8,6-9.2,10.6s-3.6,10.4-3.6,17.4v51.6h-28v-109.2Z"/>
      <path class="st0" d="M548.3,198.7c-10.9,0-20.5-2.4-28.8-7.2-8.3-4.8-14.7-11.5-19.3-20.1-4.6-8.6-6.9-18.5-6.9-29.7s2.3-20.3,6.9-28.6,10.9-14.8,18.9-19.6c8-4.7,17.2-7.1,27.5-7.1s19.7,2.3,27.7,6.8c8,4.5,14.2,10.8,18.7,18.9,4.4,8.1,6.7,17.5,6.7,28.3s-.1,3.4-.3,5.4c-.2,2-.5,4-.8,6.2h-75.2c.6,4.7,2.1,8.6,4.5,11.9,2.4,3.3,5.4,5.8,9,7.6,3.6,1.8,7.6,2.7,12.1,2.7s10.2-1.1,14.5-3.3c4.3-2.2,7.4-5.2,9.3-9l24.7,7.4c-4.4,9.3-10.9,16.5-19.4,21.6-8.6,5.1-18.5,7.6-29.7,7.6ZM569,131.7c-.1-4.1-1.2-7.8-3.3-11-2-3.3-4.7-5.8-8.1-7.6-3.4-1.8-7.1-2.7-11.1-2.7s-7.1.9-10.3,2.7c-3.2,1.8-5.9,4.3-8.2,7.5-2.3,3.2-3.8,6.9-4.5,11.1h45.4Z"/>
      <path class="st0" d="M637.8,74c-5.2,0-9.5-1.7-12.9-5-3.4-3.3-5-7.4-5-12s1.7-8.8,5-12.1c3.3-3.3,7.6-4.9,12.9-4.9s9.1,1.6,12.6,4.9c3.4,3.3,5.1,7.3,5.1,12.1s-1.7,8.7-5.1,12c-3.4,3.4-7.6,5-12.6,5ZM623.6,88h28v109.2h-28v-109.2Z"/>
      <path class="st0" d="M681.1,88h25.3l2,11.1c3.5-3.9,7.8-7,12.8-9.3,5-2.3,10.4-3.4,16.3-3.4,8.6,0,15.9,1.8,22,5.5,6,3.6,10.7,8.9,14,15.8,3.3,6.9,4.9,15.5,4.9,25.7v63.8h-28.2v-60.1c0-8.4-1.7-14.8-5-19-3.4-4.2-8.4-6.3-15.1-6.3s-12.1,2.2-15.6,6.4c-3.6,4.3-5.4,10.7-5.4,19.1v59.9h-28v-109.2Z"/>
      <path class="st0" d="M898.5,197.2h-25.6l-1.7-11.4c-3.6,4.1-8,7.2-13,9.5-5,2.3-10.4,3.4-16.1,3.4-8.4,0-15.7-1.8-21.8-5.5-6.1-3.6-10.9-8.9-14.2-15.8-3.4-6.9-5-15.5-5-25.7v-63.8h28.2v60.3c0,8.3,1.6,14.6,4.9,18.9,3.3,4.3,8.3,6.4,15.2,6.4s12.1-2.2,15.7-6.6c3.6-4.4,5.5-10.7,5.5-19v-60.1h28v109.2Z"/>
      <path class="st0" d="M916.2,88h32.3l22.1,33.6,22.3-33.6h32.3l-38.5,54.4,38.5,54.8h-32.3l-22.3-33.9-22.1,33.9h-32.3l38.2-54.8-38.2-54.4Z"/>
    </g>
  </g>
</svg>